<mxfile host="app.diagrams.net" modified="2022-04-11T11:34:59.183Z" agent="5.0 (Macintosh; Intel Mac OS X 10_15_7) AppleWebKit/537.36 (KHTML, like Gecko) Chrome/100.0.4896.75 Safari/537.36" etag="5-qqoLZSNJWJMWJyC318" version="17.4.1" type="github">
  <diagram id="j21HDgzCXSbHb75ocCG3" name="Page-1">
    <mxGraphModel dx="2013" dy="738" grid="1" gridSize="10" guides="1" tooltips="1" connect="1" arrows="1" fold="1" page="1" pageScale="1" pageWidth="827" pageHeight="1169" math="0" shadow="0">
      <root>
        <mxCell id="0" />
        <mxCell id="1" parent="0" />
        <mxCell id="3ySFvYQsTKUrHunnDd8E-3" style="edgeStyle=orthogonalEdgeStyle;curved=1;rounded=0;orthogonalLoop=1;jettySize=auto;html=1;exitX=0.5;exitY=1;exitDx=0;exitDy=0;entryX=0.5;entryY=0;entryDx=0;entryDy=0;entryPerimeter=0;fontColor=#FF0000;strokeWidth=1;dashed=1;" edge="1" parent="1" source="3ySFvYQsTKUrHunnDd8E-1" target="3ySFvYQsTKUrHunnDd8E-2">
          <mxGeometry relative="1" as="geometry" />
        </mxCell>
        <mxCell id="3ySFvYQsTKUrHunnDd8E-1" value="META-INF/services/javax.servlet.ServletContainerInitializer" style="rounded=0;whiteSpace=wrap;html=1;fillColor=#008a00;strokeColor=#005700;fontColor=#ffffff;" vertex="1" parent="1">
          <mxGeometry x="244" y="110" width="340" height="60" as="geometry" />
        </mxCell>
        <mxCell id="3ySFvYQsTKUrHunnDd8E-5" value="" style="edgeStyle=orthogonalEdgeStyle;curved=1;rounded=0;orthogonalLoop=1;jettySize=auto;html=1;fontColor=#FF0000;strokeWidth=1;" edge="1" parent="1" source="3ySFvYQsTKUrHunnDd8E-2" target="3ySFvYQsTKUrHunnDd8E-4">
          <mxGeometry relative="1" as="geometry" />
        </mxCell>
        <mxCell id="3ySFvYQsTKUrHunnDd8E-2" value="org.springframework.web.SpringServletContainerInitializer" style="shape=note;whiteSpace=wrap;html=1;backgroundOutline=1;darkOpacity=0.05;fillColor=#fff2cc;strokeColor=#d6b656;" vertex="1" parent="1">
          <mxGeometry x="224" y="230" width="380" height="60" as="geometry" />
        </mxCell>
        <mxCell id="3ySFvYQsTKUrHunnDd8E-11" value="" style="edgeStyle=orthogonalEdgeStyle;curved=1;rounded=0;orthogonalLoop=1;jettySize=auto;html=1;dashed=1;fontColor=#FF0000;strokeWidth=1;" edge="1" parent="1" source="3ySFvYQsTKUrHunnDd8E-4" target="3ySFvYQsTKUrHunnDd8E-10">
          <mxGeometry relative="1" as="geometry" />
        </mxCell>
        <mxCell id="3ySFvYQsTKUrHunnDd8E-12" value="实现类" style="edgeLabel;html=1;align=center;verticalAlign=middle;resizable=0;points=[];fontColor=#FF0000;" vertex="1" connectable="0" parent="3ySFvYQsTKUrHunnDd8E-11">
          <mxGeometry y="2" relative="1" as="geometry">
            <mxPoint as="offset" />
          </mxGeometry>
        </mxCell>
        <mxCell id="3ySFvYQsTKUrHunnDd8E-4" value="&lt;div&gt;&lt;b&gt;&lt;font color=&quot;#ff0000&quot;&gt;@HandlesTypes(WebApplicationInitializer.class)&lt;/font&gt;&lt;/b&gt;&lt;/div&gt;&lt;div&gt;public class SpringServletContainerInitializer implements ServletContainerInitialize&lt;/div&gt;" style="whiteSpace=wrap;html=1;fillColor=#dae8fc;strokeColor=#6c8ebf;align=left;spacing=6;" vertex="1" parent="1">
          <mxGeometry x="186" y="350" width="456" height="60" as="geometry" />
        </mxCell>
        <mxCell id="3ySFvYQsTKUrHunnDd8E-6" value="定义了实现类" style="whiteSpace=wrap;html=1;shape=partialRectangle;top=0;left=0;bottom=1;right=0;points=[[0,1],[1,1]];fillColor=#fff2cc;align=center;verticalAlign=bottom;routingCenterY=0.5;snapToPoint=1;recursiveResize=0;autosize=1;treeFolding=1;treeMoving=1;newEdgeStyle={&quot;edgeStyle&quot;:&quot;entityRelationEdgeStyle&quot;,&quot;startArrow&quot;:&quot;none&quot;,&quot;endArrow&quot;:&quot;none&quot;,&quot;segment&quot;:10,&quot;curved&quot;:1};strokeColor=#d6b656;" vertex="1" parent="1">
          <mxGeometry x="600" y="190" width="100" height="20" as="geometry" />
        </mxCell>
        <mxCell id="3ySFvYQsTKUrHunnDd8E-7" value="" style="edgeStyle=entityRelationEdgeStyle;startArrow=none;endArrow=none;segment=10;curved=1;rounded=0;fontColor=#000000;strokeWidth=1;exitX=0;exitY=0;exitDx=350;exitDy=0;exitPerimeter=0;" edge="1" target="3ySFvYQsTKUrHunnDd8E-6" parent="1" source="3ySFvYQsTKUrHunnDd8E-2">
          <mxGeometry relative="1" as="geometry">
            <mxPoint x="760" y="200" as="sourcePoint" />
          </mxGeometry>
        </mxCell>
        <mxCell id="3ySFvYQsTKUrHunnDd8E-8" value="Servlet 3.0 SPI 规范" style="whiteSpace=wrap;html=1;shape=partialRectangle;top=0;left=0;bottom=1;right=0;points=[[0,1],[1,1]];fillColor=#fff2cc;align=center;verticalAlign=bottom;routingCenterY=0.5;snapToPoint=1;recursiveResize=0;autosize=1;treeFolding=1;treeMoving=1;newEdgeStyle={&quot;edgeStyle&quot;:&quot;entityRelationEdgeStyle&quot;,&quot;startArrow&quot;:&quot;none&quot;,&quot;endArrow&quot;:&quot;none&quot;,&quot;segment&quot;:10,&quot;curved&quot;:1};strokeColor=#d6b656;" vertex="1" parent="1">
          <mxGeometry x="550" y="60" width="140" height="20" as="geometry" />
        </mxCell>
        <mxCell id="3ySFvYQsTKUrHunnDd8E-9" value="" style="edgeStyle=entityRelationEdgeStyle;startArrow=none;endArrow=none;segment=10;curved=1;rounded=0;fontColor=#000000;strokeWidth=1;exitX=0.75;exitY=0;exitDx=0;exitDy=0;" edge="1" target="3ySFvYQsTKUrHunnDd8E-8" parent="1" source="3ySFvYQsTKUrHunnDd8E-1">
          <mxGeometry relative="1" as="geometry">
            <mxPoint x="470" y="110" as="sourcePoint" />
          </mxGeometry>
        </mxCell>
        <mxCell id="3ySFvYQsTKUrHunnDd8E-14" value="" style="edgeStyle=orthogonalEdgeStyle;curved=1;rounded=0;orthogonalLoop=1;jettySize=auto;html=1;dashed=1;fontColor=#FF0000;strokeWidth=1;" edge="1" parent="1" source="3ySFvYQsTKUrHunnDd8E-10" target="3ySFvYQsTKUrHunnDd8E-13">
          <mxGeometry relative="1" as="geometry" />
        </mxCell>
        <mxCell id="3ySFvYQsTKUrHunnDd8E-17" style="edgeStyle=orthogonalEdgeStyle;curved=1;rounded=0;orthogonalLoop=1;jettySize=auto;html=1;exitX=0.25;exitY=1;exitDx=0;exitDy=0;dashed=1;fontColor=#FF0000;strokeWidth=1;" edge="1" parent="1" source="3ySFvYQsTKUrHunnDd8E-10" target="3ySFvYQsTKUrHunnDd8E-16">
          <mxGeometry relative="1" as="geometry" />
        </mxCell>
        <mxCell id="3ySFvYQsTKUrHunnDd8E-18" style="edgeStyle=orthogonalEdgeStyle;curved=1;rounded=0;orthogonalLoop=1;jettySize=auto;html=1;exitX=0.75;exitY=1;exitDx=0;exitDy=0;dashed=1;fontColor=#FF0000;strokeWidth=1;" edge="1" parent="1" source="3ySFvYQsTKUrHunnDd8E-10" target="3ySFvYQsTKUrHunnDd8E-15">
          <mxGeometry relative="1" as="geometry" />
        </mxCell>
        <mxCell id="3ySFvYQsTKUrHunnDd8E-10" value="public class MyWebApplicationInitializerV2 &lt;b&gt;&lt;font color=&quot;#ff0000&quot;&gt;extends AbstractAnnotationConfigDispatcherServletInitializer&lt;/font&gt;&lt;/b&gt;" style="whiteSpace=wrap;html=1;align=left;fillColor=#dae8fc;strokeColor=#6c8ebf;spacing=6;" vertex="1" parent="1">
          <mxGeometry x="109" y="490" width="609" height="60" as="geometry" />
        </mxCell>
        <mxCell id="3ySFvYQsTKUrHunnDd8E-13" value="&lt;div&gt;@Override&lt;/div&gt;&lt;div&gt;&lt;span&gt;	&lt;/span&gt;protected Class&amp;lt;?&amp;gt;[] getServletConfigClasses() {&lt;/div&gt;&lt;div&gt;&lt;span&gt;&lt;span style=&quot;white-space: pre&quot;&gt;	&lt;/span&gt;// 这里的配置类会去扫描 @Controller 注解，同时会开启 @EnableWebMvc，也就是所谓的子容器&lt;/span&gt;&lt;/div&gt;&lt;div&gt;&lt;span&gt;		&lt;/span&gt;&lt;span style=&quot;white-space: pre&quot;&gt;	&lt;/span&gt;return new Class&amp;lt;?&amp;gt;[]{AppConfig.class};&lt;/div&gt;&lt;div&gt;&lt;span&gt;	&lt;/span&gt;}&lt;/div&gt;" style="whiteSpace=wrap;html=1;align=left;fillColor=#f5f5f5;strokeColor=#666666;spacing=6;fontColor=#333333;" vertex="1" parent="1">
          <mxGeometry x="124.5" y="1010" width="579" height="130" as="geometry" />
        </mxCell>
        <mxCell id="3ySFvYQsTKUrHunnDd8E-15" value="&lt;div&gt;@Override&lt;/div&gt;&lt;div&gt;&lt;span&gt;	&lt;/span&gt;protected String[] getServletMappings() {&lt;/div&gt;&lt;div&gt;&lt;span&gt;&lt;span style=&quot;white-space: pre&quot;&gt;	&lt;/span&gt;// 拦截请求的路径&lt;/span&gt;&lt;/div&gt;&lt;div&gt;&lt;span&gt;&lt;span style=&quot;white-space: pre&quot;&gt;	&lt;/span&gt;return new String[]{&quot;/&quot;};&lt;/span&gt;&lt;/div&gt;&lt;div&gt;&lt;span&gt;	&lt;/span&gt;}&lt;/div&gt;" style="whiteSpace=wrap;html=1;align=left;fillColor=#f5f5f5;strokeColor=#666666;spacing=6;fontColor=#333333;" vertex="1" parent="1">
          <mxGeometry x="530" y="670" width="270" height="100" as="geometry" />
        </mxCell>
        <mxCell id="3ySFvYQsTKUrHunnDd8E-16" value="&lt;div&gt;@Override&lt;/div&gt;&lt;div&gt;&lt;span&gt;	&lt;/span&gt;protected Class&amp;lt;?&amp;gt;[] getRootConfigClasses() {&lt;/div&gt;&lt;div&gt;&lt;span&gt;&lt;span style=&quot;white-space: pre&quot;&gt;	&lt;/span&gt;// 通过这里的配置类很简单，会排出掉 @Controller 注解，也就是所谓的父容器&lt;/span&gt;&lt;/div&gt;&lt;div&gt;&lt;span&gt;&lt;span style=&quot;white-space: pre&quot;&gt;	&lt;/span&gt;return new Class&amp;lt;?&amp;gt;[]{AppConfig.class};&lt;/span&gt;&lt;/div&gt;&lt;div&gt;&lt;span&gt;	&lt;/span&gt;}&lt;/div&gt;" style="whiteSpace=wrap;html=1;align=left;fillColor=#f5f5f5;strokeColor=#666666;spacing=6;fontColor=#333333;" vertex="1" parent="1">
          <mxGeometry x="-100" y="790" width="480" height="110" as="geometry" />
        </mxCell>
      </root>
    </mxGraphModel>
  </diagram>
</mxfile>
